<svg xmlns="http://www.w3.org/2000/svg" width="300" height="320" fill="none" viewBox="0 0 300 320">
    <path fill="#FFD901" d="M149.678 118.71c31.355 0 56.774-25.42 56.774-56.775 0-31.355-25.42-56.774-56.774-56.774-31.356 0-56.775 25.419-56.775 56.774 0 31.356 25.419 56.774 56.775 56.774z"/>
    <g fill="#333">
        <path d="M92.903 170.323c-8.537 0-15.484-6.947-15.484-15.484H67.097c0 14.23 11.576 25.806 25.806 25.806s25.806-11.576 25.806-25.806h-10.322c0 8.537-6.947 15.484-15.484 15.484zM206.451 170.323c-8.536 0-15.483-6.947-15.483-15.484h-10.323c0 14.23 11.577 25.806 25.806 25.806 14.23 0 25.807-11.576 25.807-25.806h-10.323c0 8.537-6.947 15.484-15.484 15.484z"/>
        <path fill-rule="evenodd" d="M268.386 119.123c17.482 2.518 30.969 17.553 30.969 35.716 0 18.204-13.55 33.27-31.086 35.73-1.791 44.946-28.657 83.542-66.979 102.123V320h-10.323v-22.9a118.117 118.117 0 0 1-41.29 7.416 118.117 118.117 0 0 1-41.29-7.417V320H98.065v-27.307c-38.323-18.581-65.188-57.177-66.979-102.116C13.548 188.108 0 173.043 0 154.839c0-18.163 13.487-33.198 30.968-35.716v-5.575c0-11.571 17.078-20.289 50.766-25.91l1.698 10.184c-34.988 5.837-42.142 13.894-42.142 15.726 0 7.004 38.256 20.646 108.387 20.646 70.132 0 108.388-13.642 108.388-20.646 0-1.832-7.154-9.889-42.137-15.726l1.698-10.183c33.682 5.62 50.76 14.338 50.76 25.91v5.574zm-237.419 10.43c-11.762 2.4-20.645 12.826-20.645 25.286 0 12.459 8.883 22.885 20.645 25.285v-50.57zm118.71 164.64c-59.767 0-108.387-48.624-108.387-108.387v-58.44c22.488 13.238 76.48 17.15 108.387 17.15 31.908 0 85.9-3.912 108.388-17.15v58.44c0 59.763-48.62 108.387-108.388 108.387zm118.71-164.64v50.57c11.762-2.4 20.645-12.82 20.645-25.284 0-12.465-8.883-22.886-20.646-25.286z" clip-rule="evenodd"/>
        <path fill-rule="evenodd" d="M149.677 123.871c34.153 0 61.936-27.783 61.936-61.936C211.613 27.783 183.83 0 149.677 0c-34.152 0-61.935 27.783-61.935 61.935 0 34.153 27.783 61.936 61.935 61.936zM103.082 83.99c1.326-2.937 9.264-18.777 25.997-21.585.041 1.724.33 3.37.769 4.965-11.092 12.387-11.412 26.994-9.801 36.765a51.944 51.944 0 0 1-16.965-20.145zm-1.952-39.407c-1.95 5.43-3.066 11.257-3.066 17.352 0 3.035.315 5.998.826 8.888 5.77-8.051 16.325-18.163 32.94-19.07.836-1.462 1.8-2.84 2.962-4.053-13.827-9.904-30.493-4.325-33.662-3.117zM160 61.935c0 5.693-4.63 10.323-10.323 10.323-5.692 0-10.322-4.63-10.322-10.323 0-5.692 4.63-10.322 10.322-10.322 5.693 0 10.323 4.63 10.323 10.322zm-24.558 14.886c-9.904 13.832-4.33 30.498-3.117 33.662 5.43 1.946 11.257 3.065 17.352 3.065 3.035 0 5.998-.314 8.893-.82-8.051-5.77-18.162-16.325-19.07-32.94-1.467-.841-2.844-1.806-4.058-2.967zm36.29 31.711c-2.943-1.332-18.782-9.265-21.585-25.998 1.73-.041 3.38-.335 4.98-.774 5.012 4.48 10.798 7.634 17.327 9.223l2.447-10.028c-3.773-.919-7.22-2.55-10.333-4.785 1.161-1.213 2.126-2.585 2.962-4.051 16.615-.909 27.17-11.02 32.94-19.071.506 2.89.82 5.853.82 8.887 0 6.096-1.114 11.923-3.065 17.353-1.724.666-7.846 2.792-15.422 2.637l-.125 10.323.312.002c.1.002.201.003.303.003 3.143 0 6.033-.31 8.62-.738a51.948 51.948 0 0 1-20.182 17.017zm-1.456-47.066c16.738-2.808 24.67-18.648 25.998-21.585a51.946 51.946 0 0 0-16.966-20.144c1.61 9.77 1.29 24.377-9.8 36.764.438 1.594.727 3.24.768 4.965zm-3.246-48.078c1.212 3.164 6.787 19.83-3.118 33.662-1.213-1.161-2.59-2.126-4.056-2.967-.91-16.615-11.02-27.17-19.072-32.94 2.896-.506 5.858-.82 8.893-.82 6.096 0 11.923 1.114 17.353 3.065zm-17.822 27.949c-2.802-16.733-18.643-24.666-21.585-25.998a51.935 51.935 0 0 0-20.139 16.965c9.77-1.61 24.372-1.29 36.759 9.802 1.594-.439 3.241-.728 4.965-.77z" clip-rule="evenodd"/>
    </g>
</svg>
