<svg xmlns="http://www.w3.org/2000/svg" width="299" height="299" fill="none" viewBox="0 0 299 299">
    <path fill="#FFD901" d="M173.613 96.451h-48.226V68.674c-9.105-7.311-14.468-18.374-14.468-30.093C110.919 17.308 128.227 0 149.499 0c21.273 0 38.58 17.308 38.58 38.58 0 11.724-5.362 22.787-14.467 30.093V96.45z"/>
    <path fill="#333" fill-rule="evenodd" d="M154.322 72.339h24.113v9.645h-57.872V72.34h24.113V52.16c-5.6-1.997-9.645-7.302-9.645-13.58 0-7.977 6.492-14.469 14.468-14.469s14.468 6.492 14.468 14.468c0 6.28-4.046 11.585-9.645 13.581V72.34zm0-33.759a4.827 4.827 0 0 0-4.822-4.822 4.827 4.827 0 0 0-4.823 4.822 4.827 4.827 0 0 0 4.823 4.823 4.827 4.827 0 0 0 4.823-4.823z" clip-rule="evenodd"/>
    <path fill="#333" d="M191.904 208.137l-5.228 8.112c15.978 10.3 25.516 27.754 25.516 46.682v26.423h-59.925l35.156-60.263-8.337-4.862-29.587 50.734-29.59-50.733-8.339 4.862 35.162 60.263H86.806v-26.423c0-18.933 9.539-36.386 25.516-46.687l-5.228-8.112c-18.746 12.095-29.933 32.577-29.933 54.8V299h144.677v-36.068c0-22.223-11.189-42.705-29.934-54.795z"/>
    <path fill="#333" fill-rule="evenodd" d="M149.243 217.4c-29.36 0-53.24-23.881-53.24-53.24 0-29.355 23.88-53.241 53.24-53.241 29.36 0 53.241 23.885 53.241 53.24 0 29.36-23.882 53.242-53.24 53.242zm0-9.644c24.037 0 43.597-19.561 43.597-43.596 0-24.04-19.56-43.597-43.597-43.597-24.036 0-43.596 19.556-43.596 43.597 0 24.036 19.56 43.596 43.596 43.596z" clip-rule="evenodd"/>
    <path fill="#333" d="M84.096 181.926c-3.988 1.139-8.03 1.717-12.008 1.717-24.036 0-43.597-19.56-43.597-43.596 0-24.04 19.56-43.597 43.597-43.597 13.122 0 25.42 5.836 33.748 16.016l7.47-6.11c-10.17-12.423-25.193-19.551-41.223-19.551-29.36 0-53.241 23.886-53.241 53.24 0 29.36 23.881 53.241 53.24 53.241 4.876 0 9.805-.704 14.656-2.088l-2.642-9.272zM9.645 238.818c0-18.933 9.54-36.386 25.516-46.687l-5.227-8.112C11.189 196.115 0 216.596 0 238.819v36.067h62.694v-9.645H9.645v-26.423zM279.646 140.048c0-29.356-23.881-53.241-53.24-53.241-16.026 0-31.048 7.128-41.219 19.55l7.47 6.11c8.329-10.18 20.63-16.015 33.748-16.015 24.036 0 43.597 19.556 43.597 43.597 0 24.035-19.56 43.596-43.597 43.596-3.979 0-8.02-.578-12.008-1.717l-2.657 9.27c4.851 1.387 9.785 2.096 14.665 2.096 29.36-.006 53.241-23.887 53.241-53.246zM269.066 184.025l-5.228 8.112c15.977 10.3 25.516 27.754 25.516 46.682v26.423H231.483v9.645h67.516v-36.068c0-22.223-11.19-42.704-29.933-54.794z"/>
</svg>
