<svg width="1440" height="1360" viewBox="0 0 1440 1360" fill="none" xmlns="http://www.w3.org/2000/svg">
<path fill-rule="evenodd" clip-rule="evenodd" d="M0 5.99999C0 2.68629 2.68629 0 6 0H194C197.314 0 200 2.68629 200 6V194C200 197.314 197.314 200 194 200H5.99999C2.68629 200 0 197.314 0 194V5.99999Z" transform="translate(-160 20)" fill="#424242" fill-opacity="0.03"/>
<path fill-rule="evenodd" clip-rule="evenodd" d="M0 5.99999C0 2.68629 2.68629 0 6 0H194C197.314 0 200 2.68629 200 6V194C200 197.314 197.314 200 194 200H5.99999C2.68629 200 0 197.314 0 194V5.99999Z" transform="translate(-89 120)" fill="#424242" fill-opacity="0.03"/>
<path fill-rule="evenodd" clip-rule="evenodd" d="M0 5.99999C0 2.68629 2.68629 0 6 0H194C197.314 0 200 2.68629 200 6V194C200 197.314 197.314 200 194 200H5.99999C2.68629 200 0 197.314 0 194V5.99999Z" transform="translate(776 120)" fill="#424242" fill-opacity="0.03"/>
<path fill-rule="evenodd" clip-rule="evenodd" d="M0 5.99999C0 2.68629 2.68629 0 6 0H194C197.314 0 200 2.68629 200 6V194C200 197.314 197.314 200 194 200H5.99999C2.68629 200 0 197.314 0 194V5.99999Z" transform="translate(1340 250)" fill="#424242" fill-opacity="0.03"/>
<path fill-rule="evenodd" clip-rule="evenodd" d="M0 5.99999C0 2.68629 2.68629 0 6 0H194C197.314 0 200 2.68629 200 6V194C200 197.314 197.314 200 194 200H5.99999C2.68629 200 0 197.314 0 194V5.99999Z" transform="translate(1200 350)" fill="#424242" fill-opacity="0.03"/>
<path fill-rule="evenodd" clip-rule="evenodd" d="M0 5.99999C0 2.68629 2.68629 0 6 0H194C197.314 0 200 2.68629 200 6V194C200 197.314 197.314 200 194 200H5.99999C2.68629 200 0 197.314 0 194V5.99999Z" transform="translate(620)" fill="#424242" fill-opacity="0.03"/>
<path fill-rule="evenodd" clip-rule="evenodd" d="M0 5.99999C0 2.68629 2.68629 0 6 0H194C197.314 0 200 2.68629 200 6V194C200 197.314 197.314 200 194 200H5.99999C2.68629 200 0 197.314 0 194V5.99999Z" transform="translate(620 414)" fill="#424242" fill-opacity="0.03"/>
<path fill-rule="evenodd" clip-rule="evenodd" d="M0 5.99999C0 2.68629 2.68629 0 6 0H194C197.314 0 200 2.68629 200 6V194C200 197.314 197.314 200 194 200H5.99999C2.68629 200 0 197.314 0 194V5.99999Z" transform="translate(776 487)" fill="#424242" fill-opacity="0.03"/>
<path fill-rule="evenodd" clip-rule="evenodd" d="M0 5.99999C0 2.68629 2.68629 0 6 0H194C197.314 0 200 2.68629 200 6V194C200 197.314 197.314 200 194 200H5.99999C2.68629 200 0 197.314 0 194V5.99999Z" transform="translate(720 660)" fill="#424242" fill-opacity="0.03"/>
<path fill-rule="evenodd" clip-rule="evenodd" d="M0 5.99999C0 2.68629 2.68629 0 6 0H194C197.314 0 200 2.68629 200 6V194C200 197.314 197.314 200 194 200H5.99999C2.68629 200 0 197.314 0 194V5.99999Z" transform="translate(676 1105)" fill="#424242" fill-opacity="0.03"/>
<path fill-rule="evenodd" clip-rule="evenodd" d="M0 5.99999C0 2.68629 2.68629 0 6 0H194C197.314 0 200 2.68629 200 6V194C200 197.314 197.314 200 194 200H5.99999C2.68629 200 0 197.314 0 194V5.99999Z" transform="translate(1340 814)" fill="#424242" fill-opacity="0.03"/>
<path fill-rule="evenodd" clip-rule="evenodd" d="M0 5.99999C0 2.68629 2.68629 0 6 0H194C197.314 0 200 2.68629 200 6V194C200 197.314 197.314 200 194 200H5.99999C2.68629 200 0 197.314 0 194V5.99999Z" transform="translate(-90 614)" fill="#424242" fill-opacity="0.03"/>
<path fill-rule="evenodd" clip-rule="evenodd" d="M0 5.99999C0 2.68629 2.68629 0 6 0H194C197.314 0 200 2.68629 200 6V194C200 197.314 197.314 200 194 200H5.99999C2.68629 200 0 197.314 0 194V5.99999Z" transform="translate(271 760)" fill="#424242" fill-opacity="0.03"/>
<path fill-rule="evenodd" clip-rule="evenodd" d="M0 5.99999C0 2.68629 2.68629 0 6 0H194C197.314 0 200 2.68629 200 6V194C200 197.314 197.314 200 194 200H5.99999C2.68629 200 0 197.314 0 194V5.99999Z" transform="translate(371 714)" fill="#424242" fill-opacity="0.03"/>
<path fill-rule="evenodd" clip-rule="evenodd" d="M0 5.99999C0 2.68629 2.68629 0 6 0H194C197.314 0 200 2.68629 200 6V194C200 197.314 197.314 200 194 200H5.99999C2.68629 200 0 197.314 0 194V5.99999Z" transform="translate(310 860)" fill="#424242" fill-opacity="0.03"/>
<path fill-rule="evenodd" clip-rule="evenodd" d="M0 5.99999C0 2.68629 2.68629 0 6 0H194C197.314 0 200 2.68629 200 6V194C200 197.314 197.314 200 194 200H5.99999C2.68629 200 0 197.314 0 194V5.99999Z" transform="translate(71 1105)" fill="#424242" fill-opacity="0.03"/>
<path fill-rule="evenodd" clip-rule="evenodd" d="M0 5.99999C0 2.68629 2.68629 0 6 0H194C197.314 0 200 2.68629 200 6V194C200 197.314 197.314 200 194 200H5.99999C2.68629 200 0 197.314 0 194V5.99999Z" transform="translate(720 1160)" fill="#424242" fill-opacity="0.03"/>
</svg>
