<svg width="1440" height="450" viewBox="0 0 1440 450" fill="none" xmlns="http://www.w3.org/2000/svg">
<path fill-rule="evenodd" clip-rule="evenodd" d="M212 71.4204C212 64.5864 208.408 58.3299 202.487 54.7685L116.386 2.88762C109.98 -0.962539 101.923 -0.962539 95.5165 2.88762L9.51282 54.7685C3.59157 58.3299 0 64.6826 0 71.4204V175.086C0 181.92 3.59157 188.176 9.51282 191.738L95.5165 243.619C98.7198 245.544 107.165 249.009 116.386 243.619L202.39 191.738C208.408 188.273 212 181.92 212 175.086V71.4204Z" transform="translate(170 574) scale(1 -1)" fill="white" fill-opacity="0.1"/>
<path fill-rule="evenodd" clip-rule="evenodd" d="M212 71.4204C212 64.5864 208.408 58.3299 202.487 54.7685L116.386 2.88762C109.98 -0.962539 101.923 -0.962539 95.5165 2.88762L9.51282 54.7685C3.59157 58.3299 0 64.6826 0 71.4204V175.086C0 181.92 3.59157 188.176 9.51282 191.738L95.5165 243.619C98.7198 245.544 107.165 249.009 116.386 243.619L202.39 191.738C208.408 188.273 212 181.92 212 175.086V71.4204Z" transform="translate(59 376) scale(1 -1)" fill="white" fill-opacity="0.1"/>
<path fill-rule="evenodd" clip-rule="evenodd" d="M212 71.4204C212 64.5864 208.408 58.3299 202.487 54.7685L116.386 2.88762C109.98 -0.962539 101.923 -0.962539 95.5165 2.88762L9.51282 54.7685C3.59157 58.3299 0 64.6826 0 71.4204V175.086C0 181.92 3.59157 188.176 9.51282 191.738L95.5165 243.619C98.7198 245.544 107.165 249.009 116.386 243.619L202.39 191.738C208.408 188.273 212 181.92 212 175.086V71.4204Z" transform="translate(392 574) scale(1 -1)" fill="white" fill-opacity="0.1"/>
<path fill-rule="evenodd" clip-rule="evenodd" d="M212 71.4204C212 64.5864 208.408 58.3299 202.487 54.7685L116.386 2.88762C109.98 -0.962539 101.923 -0.962539 95.5165 2.88762L9.51282 54.7685C3.59157 58.3299 0 64.6826 0 71.4204V175.086C0 181.92 3.59157 188.176 9.51282 191.738L95.5165 243.619C98.7198 245.544 107.165 249.009 116.386 243.619L202.39 191.738C208.408 188.273 212 181.92 212 175.086V71.4204Z" transform="translate(614 574) scale(1 -1)" fill="white" fill-opacity="0.1"/>
<path fill-rule="evenodd" clip-rule="evenodd" d="M212 71.4204C212 64.5864 208.408 58.3299 202.487 54.7685L116.386 2.88762C109.98 -0.962539 101.923 -0.962539 95.5165 2.88762L9.51282 54.7685C3.59157 58.3299 0 64.6826 0 71.4204V175.086C0 181.92 3.59157 188.176 9.51282 191.738L95.5165 243.619C98.7198 245.544 107.165 249.009 116.386 243.619L202.39 191.738C208.408 188.273 212 181.92 212 175.086V71.4204Z" transform="translate(836 574) scale(1 -1)" fill="white" fill-opacity="0.1"/>
<path fill-rule="evenodd" clip-rule="evenodd" d="M212 71.4204C212 64.5864 208.408 58.3299 202.487 54.7685L116.386 2.88762C109.98 -0.962539 101.923 -0.962539 95.5165 2.88762L9.51282 54.7685C3.59157 58.3299 0 64.6826 0 71.4204V175.086C0 181.92 3.59157 188.176 9.51282 191.738L95.5165 243.619C98.7198 245.544 107.165 249.009 116.386 243.619L202.39 191.738C208.408 188.273 212 181.92 212 175.086V71.4204Z" transform="translate(1280 574) scale(1 -1)" fill="white" fill-opacity="0.1"/>
<path fill-rule="evenodd" clip-rule="evenodd" d="M212 71.4204C212 64.5864 208.408 58.3299 202.487 54.7685L116.386 2.88762C109.98 -0.962539 101.923 -0.962539 95.5165 2.88762L9.51282 54.7685C3.59157 58.3299 0 64.6826 0 71.4204V175.086C0 181.92 3.59157 188.176 9.51282 191.738L95.5165 243.619C98.7198 245.544 107.165 249.009 116.386 243.619L202.39 191.738C208.408 188.273 212 181.92 212 175.086V71.4204Z" transform="translate(503 376) scale(1 -1)" fill="white" fill-opacity="0.1"/>
<path fill-rule="evenodd" clip-rule="evenodd" d="M212 71.4204C212 64.5864 208.408 58.3299 202.487 54.7685L116.386 2.88762C109.98 -0.962539 101.923 -0.962539 95.5165 2.88762L9.51282 54.7685C3.59157 58.3299 0 64.6826 0 71.4204V175.086C0 181.92 3.59157 188.176 9.51282 191.738L95.5165 243.619C98.7198 245.544 107.165 249.009 116.386 243.619L202.39 191.738C208.408 188.273 212 181.92 212 175.086V71.4204Z" transform="translate(1169 376) scale(1 -1)" fill="white" fill-opacity="0.1"/>
<path fill-rule="evenodd" clip-rule="evenodd" d="M212 71.4204C212 64.5864 208.408 58.3299 202.487 54.7685L116.386 2.88762C109.98 -0.962539 101.923 -0.962539 95.5165 2.88762L9.51282 54.7685C3.59157 58.3299 0 64.6826 0 71.4204V175.086C0 181.92 3.59157 188.176 9.51282 191.738L95.5165 243.619C98.7198 245.544 107.165 249.009 116.386 243.619L202.39 191.738C208.408 188.273 212 181.92 212 175.086V71.4204Z" transform="translate(947 376) scale(1 -1)" fill="white" fill-opacity="0.1"/>
<path fill-rule="evenodd" clip-rule="evenodd" d="M212 71.4204C212 64.5864 208.408 58.3299 202.487 54.7685L116.386 2.88762C109.98 -0.962539 101.923 -0.962539 95.5165 2.88762L9.51282 54.7685C3.59157 58.3299 0 64.6826 0 71.4204V175.086C0 181.92 3.59157 188.176 9.51282 191.738L95.5165 243.619C98.7198 245.544 107.165 249.009 116.386 243.619L202.39 191.738C208.408 188.273 212 181.92 212 175.086V71.4204Z" transform="translate(836 178) scale(1 -1)" fill="white" fill-opacity="0.1"/>
<path fill-rule="evenodd" clip-rule="evenodd" d="M212 71.4204C212 64.5864 208.408 58.3299 202.487 54.7685L116.386 2.88762C109.98 -0.962539 101.923 -0.962539 95.5165 2.88762L9.51282 54.7685C3.59157 58.3299 0 64.6826 0 71.4204V175.086C0 181.92 3.59157 188.176 9.51282 191.738L95.5165 243.619C98.7198 245.544 107.165 249.009 116.386 243.619L202.39 191.738C208.408 188.273 212 181.92 212 175.086V71.4204Z" transform="translate(1280 178) scale(1 -1)" fill="white" fill-opacity="0.1"/>
<path fill-rule="evenodd" clip-rule="evenodd" d="M212 71.4204C212 64.5864 208.408 58.3299 202.487 54.7685L116.386 2.88762C109.98 -0.962539 101.923 -0.962539 95.5165 2.88762L9.51282 54.7685C3.59157 58.3299 0 64.6826 0 71.4204V175.086C0 181.92 3.59157 188.176 9.51282 191.738L95.5165 243.619C98.7198 245.544 107.165 249.009 116.386 243.619L202.39 191.738C208.408 188.273 212 181.92 212 175.086V71.4204Z" transform="translate(392 178) scale(1 -1)" fill="white" fill-opacity="0.1"/>
<path fill-rule="evenodd" clip-rule="evenodd" d="M212 71.4204C212 64.5864 208.408 58.3299 202.487 54.7685L116.386 2.88762C109.98 -0.962539 101.923 -0.962539 95.5165 2.88762L9.51282 54.7685C3.59157 58.3299 0 64.6826 0 71.4204V175.086C0 181.92 3.59157 188.176 9.51282 191.738L95.5165 243.619C98.7198 245.544 107.165 249.009 116.386 243.619L202.39 191.738C208.408 188.273 212 181.92 212 175.086V71.4204Z" transform="translate(170 178) scale(1 -1)" fill="white" fill-opacity="0.1"/>
</svg>
