<svg xmlns="http://www.w3.org/2000/svg" width="1433" height="918" fill="none" viewBox="0 0 1433 918">
    <g fill="#fff" fill-opacity=".3">
        <path fill-rule="evenodd" d="M511.343 826h12.969C542.889 826 558 841.209 558 859.895V918h-9.625v-58.105c0-13.35-10.794-24.211-24.063-24.211h-12.223L481 872.174l-31.089-36.49h-12.223c-13.269 0-24.063 10.861-24.063 24.211V918H404v-58.105C404 841.209 419.111 826 437.688 826h12.97c-13.64-9.645-22.595-25.566-22.595-43.579v-1.065l-5.371-1.351c-8.172-2.048-13.88-9.408-13.88-17.882 0-10.168 8.22-18.439 18.326-18.439h.925V734h9.625v48.421C437.688 806.452 457.12 826 481 826s43.312-19.548 43.312-43.579V734h9.626v9.684h.923c10.107 0 18.327 8.27 18.327 18.439 0 8.474-5.708 15.829-13.88 17.882l-5.37 1.35v1.066c0 18.013-8.957 33.934-22.595 43.579zm23.518-72.632h-.923v18.008l3.031-.76a8.733 8.733 0 0 0 6.593-8.493c0-4.828-3.902-8.755-8.701-8.755zm-106.798 18.008l-3.032-.76a8.737 8.737 0 0 1-6.593-8.493c0-4.828 3.902-8.755 8.7-8.755h.925v18.008zm34.524 64.308L481 857.299l18.413-21.615h-36.826z" clip-rule="evenodd"/>
        <path d="M520 865h10v53h-10v-53zM434 865h10v53h-10v-53zM477 880h10v10h-10v-10zM477 898h10v10h-10v-10z"/>
        <path fill-rule="evenodd" d="M546 704.902L517.573 671h-72.146L417 704.902 481.5 769l64.5-64.098zm-77.117 4.503h25.282l-12.66 37.642-12.622-37.642zm35.421 0l-11.747 35.03 35.247-35.03h-23.5zm12.028-24.891l12.819 15.29h-20.514l7.695-15.29zm-16.11 10.542l7.27-14.455h-16.969l9.7 14.455zm-8.424 4.748h-20.596l10.298-15.348 10.298 15.348zm-29.045-4.714l9.724-14.489h-16.984l7.26 14.489zm-16.085-10.576l7.695 15.29h-20.515l12.82-15.29zm12.028 24.891h-23.5l35.247 35.03-11.747-35.03z" clip-rule="evenodd"/>
        <path d="M477 618h10v30h-10v-30zM433.33 630.376l14 24.249-8.66 5-14-24.249 8.66-5zM392.376 667.67l24.249 14-5 8.66-24.25-14 5.001-8.66zM376 719h28v10h-28v-10zM560 719h28v10h-28v-10zM572.492 667.171l4.999 8.66-25.983 14.998-4.999-8.661 25.983-14.997zM531.168 630.509l8.66 4.999-14.996 25.983-8.66-5 14.996-25.982z"/>
        <g>
            <path fill-rule="evenodd" d="M603.438 112.976h48.369c13.34 0 24.193 10.862 24.193 24.214v135.596C676 286.138 665.147 297 651.807 297H400.194C386.854 297 376 286.138 376 272.786V137.19c0-13.352 10.853-24.214 24.194-24.214h48.367a64.31 64.31 0 0 1 15.13-16.819l18.761-14.605V62.49c0-15.478 6.672-30.2 18.314-40.394L526 0l25.234 22.097a53.683 53.683 0 0 1 18.314 40.394v19.06l18.76 14.606a64.311 64.311 0 0 1 15.13 16.819zm-21.067-9.177l-12.823-9.98v48.214h33.663c-1.316-15.086-8.748-28.82-20.84-38.234zm-90.242-41.308a43.97 43.97 0 0 1 15.01-33.1L526 12.872l18.861 16.518a43.97 43.97 0 0 1 15.01 33.1v79.543h-67.742V62.491zM526 199.06c14.937-11.173 23.821-28.592 24.135-47.343h-48.27c.319 18.751 9.198 36.17 24.135 47.343zm-56.37-95.262l12.822-9.98v48.214h-33.663c1.316-15.081 8.748-28.815 20.84-38.234zm-69.436 183.516h4.838V122.662h-4.838c-8.004 0-14.517 6.518-14.517 14.528v135.596c0 8.01 6.513 14.529 14.517 14.529zm227.419 0H414.71V122.662h28.984c-3.073 7.574-4.79 15.738-4.79 24.213v4.843H492.191c.334 23.095 11.884 44.461 31.122 57.299l2.686 1.792 2.686-1.792c19.243-12.838 30.788-34.204 31.122-57.299h53.289v-4.843c0-8.475-1.718-16.639-4.79-24.213h19.306v164.653zm24.194 0c8.003 0 14.516-6.519 14.516-14.529V137.19c0-8.01-6.513-14.528-14.516-14.528h-14.516v164.653h14.516z" clip-rule="evenodd"/>
            <path d="M647 181h9v48h-9v-48z"/>
            <path fill-rule="evenodd" d="M502 64c0-13.234 10.766-24 24-24 13.233 0 24 10.766 24 24s-10.767 24-24 24c-13.234 0-24-10.766-24-24zm9.6 0c0 7.94 6.46 14.4 14.4 14.4s14.4-6.46 14.4-14.4-6.46-14.4-14.4-14.4-14.4 6.46-14.4 14.4z" clip-rule="evenodd"/>
            <path d="M522 220h9v39h-9v-39zM522 268h9v9h-9v-9zM540 259h9v9h-9v-9zM540 205h9v44h-9v-44zM502 205h9v33h-9v-33zM502 250h9v9h-9v-9zM559 250h9v9h-9v-9zM559 176h9v63h-9v-63zM483 239h9v9h-9v-9zM483 176h9v53h-9v-53z"/>
            <g>
                <path fill-rule="evenodd" d="M1334.329 213.884l-8.444 8.444a47.972 47.972 0 0 1 3.252 7.833h11.932v29.033h-11.932a47.883 47.883 0 0 1-3.252 7.833l8.444 8.444-20.531 20.526-8.443-8.444a47.728 47.728 0 0 1-7.834 3.257v11.932h-29.033V290.81a48.163 48.163 0 0 1-7.834-3.257l-8.443 8.444-20.53-20.526 8.443-8.443a47.902 47.902 0 0 1-3.252-7.834h-11.932V230.16h11.932a47.822 47.822 0 0 1 3.252-7.833l-8.444-8.444 20.531-20.526 8.443 8.444a47.686 47.686 0 0 1 7.834-3.257v-11.932h29.033v11.932c2.7.852 5.317 1.94 7.834 3.257l8.443-8.444 20.531 20.526zm-12.755 35.632h9.818v-9.677h-9.818l-.852-3.765a38.398 38.398 0 0 0-4.97-11.97l-2.056-3.272 6.953-6.953-6.846-6.842-6.953 6.953-3.271-2.06a38.587 38.587 0 0 0-11.972-4.97l-3.764-.857v-9.813h-9.677v9.813l-3.76.857a38.535 38.535 0 0 0-11.97 4.97l-3.272 2.06-6.953-6.953-6.847 6.842 6.953 6.953-2.056 3.271a38.408 38.408 0 0 0-4.97 11.971l-.856 3.765h-9.818v9.677h9.818l.852 3.765a38.407 38.407 0 0 0 4.969 11.97l2.057 3.272-6.954 6.953 6.847 6.842 6.953-6.953 3.271 2.06a38.587 38.587 0 0 0 11.97 4.97l3.766.857v9.813h9.677v-9.813l3.76-.857a38.54 38.54 0 0 0 11.97-4.97l3.272-2.06 6.953 6.953 6.847-6.842-6.954-6.953 2.057-3.271a38.405 38.405 0 0 0 4.97-11.971l.856-3.765z" clip-rule="evenodd"/>
                <path fill-rule="evenodd" d="M1263.65 244.678c0-10.674 8.68-19.355 19.355-19.355 10.674 0 19.354 8.68 19.354 19.355 0 10.674-8.68 19.355-19.354 19.355s-19.355-8.681-19.355-19.355zm9.677 0c0 5.337 4.34 9.677 9.678 9.677 5.337 0 9.677-4.34 9.677-9.677s-4.34-9.678-9.678-9.678c-5.336 0-9.677 4.34-9.677 9.678zM1432.996 176.935c0 6.3-4.06 11.623-9.678 13.626v73.471h-43.548v-9.677h33.871V190.56c-5.618-2.003-9.678-7.326-9.678-13.626 0-8.003 6.514-14.516 14.517-14.516s14.516 6.513 14.516 14.516zm-19.355 0a4.843 4.843 0 0 0 4.839 4.839 4.843 4.843 0 0 0 4.838-4.839 4.843 4.843 0 0 0-4.838-4.839 4.844 4.844 0 0 0-4.839 4.84zM1423.318 283.387v73.471c5.618 2.003 9.678 7.326 9.678 13.626 0 8.003-6.513 14.516-14.517 14.516-8.003 0-14.516-6.513-14.516-14.516 0-6.3 4.06-11.623 9.678-13.626v-63.794h-33.871v-9.677h43.548zm-9.677 87.097a4.844 4.844 0 0 0 4.839 4.838 4.843 4.843 0 0 0 4.838-4.838 4.843 4.843 0 0 0-4.838-4.839 4.843 4.843 0 0 0-4.839 4.839z" clip-rule="evenodd"/>
                <path d="M1394.29 235h9.677v9.677h-9.677V235zM1394.29 215.645h9.677v9.677h-9.677v-9.677zM1394.29 196.29h9.677v9.677h-9.677v-9.677zM1394.29 341.452h9.677v9.677h-9.677v-9.677zM1394.29 322.097h9.677v9.677h-9.677v-9.677zM1394.29 302.742h9.677v9.677h-9.677v-9.677z"/>
                <path fill-rule="evenodd" d="M1162.032 176.935c0 6.3-4.06 11.623-9.677 13.626v63.794h33.87v9.677h-43.548v-73.471c-5.617-2.003-9.677-7.326-9.677-13.626 0-8.003 6.513-14.516 14.516-14.516s14.516 6.513 14.516 14.516zm-19.355 0a4.843 4.843 0 0 0 4.84 4.839 4.843 4.843 0 0 0 4.838-4.839 4.843 4.843 0 0 0-4.839-4.839 4.843 4.843 0 0 0-4.839 4.84zM1133 370.484c0-6.3 4.06-11.623 9.677-13.626v-73.471h43.549v9.677h-33.871v63.794c5.618 2.003 9.677 7.326 9.677 13.626 0 8.003-6.512 14.516-14.516 14.516-8.003 0-14.516-6.513-14.516-14.516zm19.355 0a4.843 4.843 0 0 0-4.839-4.839 4.843 4.843 0 0 0-4.839 4.839 4.843 4.843 0 0 0 4.84 4.838 4.843 4.843 0 0 0 4.837-4.838z" clip-rule="evenodd"/>
                <path d="M1162.03 235h9.677v9.677h-9.677V235zM1162.03 215.645h9.677v9.677h-9.677v-9.677zM1162.03 196.29h9.677v9.677h-9.677v-9.677zM1162.03 341.452h9.677v9.677h-9.677v-9.677zM1162.03 322.097h9.677v9.677h-9.677v-9.677zM1162.03 302.742h9.677v9.677h-9.677v-9.677z"/>
                <path fill-rule="evenodd" d="M1287.836 157.827v-44.685c5.617-2.003 9.677-7.326 9.677-13.626 0-8.003-6.513-14.516-14.516-14.516s-14.516 6.513-14.516 14.516c0 6.3 4.06 11.623 9.677 13.626v44.685c-45.77 2.531-82.258 40.462-82.258 86.85 0 29.241 14.415 56.076 38.71 72.325v.256h-9.678v9.677h9.677v9.678h-9.677v9.677h9.677v9.678h-9.677v9.677h9.677V385h96.775v-19.355h9.677v-9.677h-9.677v-9.678h9.677v-9.677h-9.677v-9.678h9.677v-9.677h-9.677v-.256c24.295-16.249 38.709-43.084 38.709-72.325 0-46.388-36.488-84.319-82.258-86.85zm-4.839-63.15a4.843 4.843 0 0 1 4.839 4.84 4.843 4.843 0 0 1-4.839 4.838 4.843 4.843 0 0 1-4.839-4.839 4.844 4.844 0 0 1 4.84-4.839zm-38.71 270.968v9.678h77.42v-9.678h-77.42zm77.42-29.032h-9.678v9.677h9.678v9.678h-77.42v-9.678h58.065v-9.677h-58.065v-9.678h77.42v9.678zm-.001-24.919l2.27-1.423c22.819-14.284 36.44-38.811 36.44-65.594 0-42.687-34.732-77.419-77.42-77.419-42.686 0-77.419 34.732-77.419 77.419 0 26.783 13.621 51.31 36.44 65.594l2.27 1.423v5.564h77.419v-5.564z" clip-rule="evenodd"/>
            </g>
            <g>
                <path fill-rule="evenodd" d="M242.875 535.376l16.61-16.616-41.051-41.052-16.616 16.611c-6.387-3.57-13.137-6.435-20.114-8.613l-9.76-14.642h-7.427V413h-58.065v77.211c-2.807 1.263-5.58 2.608-8.27 4.103l-16.616-16.61-41.051 41.051 16.611 16.616a105.624 105.624 0 0 0-9.445 22.785H24.194v58.065H47.68a105.603 105.603 0 0 0 9.445 22.785l-16.611 16.617 41.051 41.051 16.616-16.611a105.608 105.608 0 0 0 22.786 9.445V713h58.065v-23.487c7.94-2.25 15.58-5.415 22.785-9.445l16.616 16.611 41.052-41.052-16.611-16.616a105.663 105.663 0 0 0 9.445-22.785h23.487v-58.065H252.32a105.412 105.412 0 0 0-9.445-22.785zm-59.004-25.602v9.678h-38.71v-9.678h38.71zm-24.193 114.857v-13.244h9.677v9.276a38.932 38.932 0 0 0 14.516-14.773v-76.761h-14.516v72.581h-9.677v-72.581h-14.516v96.44c1.587.199 3.198.334 4.838.334 3.349 0 6.576-.469 9.678-1.272zm7.093-143.89l12.9 19.356h-30.304l12.904-19.355h4.5zm-40.964 19.356h-9.678V605.89a38.92 38.92 0 0 0 19.355 17.163V503.469l19.355-29.032v-51.76h-38.71v9.678h19.355v9.677h-19.355v9.678h9.678v9.677h-9.678v9.677h19.355v9.678h-19.355v9.677h9.678v9.678zM150 635.58c26.68 0 48.388-21.707 48.388-48.387 0-7.273-1.71-14.473-4.84-20.976v-30.91c15.286 12.794 24.194 31.597 24.194 51.886 0 37.354-30.387 67.741-67.742 67.741-37.355 0-67.742-30.387-67.742-67.741 0-20.289 8.908-39.097 24.194-51.886v30.915c-3.136 6.503-4.84 13.708-4.84 20.971 0 26.68 21.707 48.387 48.388 48.387zm94.796-29.033h21.334v-38.709h-21.334l-.91-3.692a95.696 95.696 0 0 0-11.206-27.044l-1.975-3.247 15.092-15.096-27.367-27.368-15.097 15.092-3.247-1.974c-2.923-1.776-5.956-3.354-9.048-4.805l2.51 3.764v19.747c21.248 14.463 33.872 38.158 33.872 63.973 0 42.687-34.732 77.419-77.42 77.419-42.687 0-77.42-34.732-77.42-77.419 0-25.81 12.625-49.505 33.872-63.973v-22.335a98.933 98.933 0 0 0-6.547 3.629l-3.247 1.969-15.092-15.087-27.368 27.368 15.092 15.096-1.974 3.247a95.828 95.828 0 0 0-11.206 27.044l-.905 3.692H33.871v38.709h21.334l.905 3.692a95.685 95.685 0 0 0 11.206 27.044l1.974 3.247-15.092 15.096 27.368 27.368 15.097-15.092 3.247 1.974a95.84 95.84 0 0 0 27.044 11.207l3.692.905v21.334h38.709v-21.334l3.692-.905a95.699 95.699 0 0 0 27.044-11.207l3.247-1.974 15.096 15.092 27.368-27.368-15.092-15.096 1.974-3.247a95.845 95.845 0 0 0 11.207-27.044l.905-3.692z" clip-rule="evenodd"/>
                <path d="M266.129 413h9.677v14.516h-9.677V413zM253.844 418.069l10.264 10.264-6.843 6.843-10.264-10.264 6.843-6.843zM241.936 437.194h14.516v9.677h-14.516v-9.677zM253.865 465.992l-6.843-6.843 10.264-10.264 6.843 6.843-10.264 10.264zM266.129 456.548h9.677v14.516h-9.677v-14.516zM288.067 465.992l-10.264-10.264 6.843-6.843 10.264 10.264-6.843 6.843zM285.484 437.194H300v9.677h-14.516v-9.677zM288.071 418.08l6.843 6.843-10.264 10.264-6.843-6.843 10.264-10.264zM24.194 446.871h9.677v14.516h-9.677v-14.516zM11.93 451.959l10.264 10.264-6.843 6.843-10.265-10.264 6.843-6.843zM0 471.065h14.516v9.677H0v-9.677zM11.933 499.849l-6.843-6.843 10.264-10.264 6.843 6.843-10.264 10.264zM24.194 490.419h9.677v14.516h-9.677V490.42zM46.14 499.853l-10.264-10.264 6.842-6.843 10.265 10.264-6.843 6.843zM43.548 471.065h14.516v9.677H43.548v-9.677zM46.135 451.951l6.843 6.843-10.264 10.264-6.843-6.843 10.264-10.264zM198.387 437.194h9.677v9.677h-9.677v-9.677zM198.387 456.548h9.677v9.677h-9.677v-9.677zM208.064 446.871h9.677v9.677h-9.677v-9.677zM188.71 446.871h9.677v9.677h-9.677v-9.677zM77.42 413h9.677v9.677h-9.678V413zM77.42 432.355h9.677v9.677h-9.678v-9.677zM87.097 422.677h9.677v9.677h-9.677v-9.677zM67.742 422.677h9.677v9.677h-9.677v-9.677z"/>
            </g>
            <g>
                <path fill-rule="evenodd" d="M1307.23 825.778l-24.938-3.846v-5.012c16.253-9.448 28.246-25.442 32.294-44.386 11.737-1.64 20.837-11.654 20.837-23.855 0-11.679-8.312-21.45-19.32-23.7v-15.002c0-11.804-8.501-21.63-19.688-23.74-2.12-13.922-14.123-24.638-28.613-24.638a28.54 28.54 0 0 0-19.321 7.47c-5.274-4.8-12.07-7.47-19.32-7.47-14.49 0-26.493 10.716-28.613 24.639-11.187 2.109-19.688 11.935-19.688 23.739v15.002c-11.008 2.25-19.32 12.017-19.32 23.7 0 12.2 9.1 22.215 20.837 23.855 4.047 18.944 16.04 34.938 32.294 44.386v5.012l-24.938 3.841c-22.315 3.44-41.085 19.608-47.818 41.189L1125.99 918h244.983l-15.925-51.033c-6.733-21.586-25.503-37.754-47.818-41.189zm8.872-67.424v-23.298c5.608 2.002 9.661 7.324 9.661 13.623 0 6.371-4.149 11.741-9.863 13.686.021-.372.047-.743.072-1.114.065-.96.13-1.92.13-2.897zm-135.242-23.298c-5.608 2.002-9.66 7.324-9.66 13.623 0 6.371 4.149 11.741 9.863 13.686a80.34 80.34 0 0 0-.039-.624l-.032-.481c-.066-.963-.132-1.926-.132-2.906v-23.298zm105.871 97.35l-7.405 37.081-20.518-20.55c11.959-3.053 18.804-11.026 21.812-17.474l6.111.943zm-62.4-7.034c.84 2.573 5.902 15.224 24.15 15.224 18.253 0 23.325-12.709 24.151-15.224v-3.832c-7.511 2.893-15.635 4.543-24.151 4.543-8.515 0-16.639-1.65-24.15-4.543v3.832zm-19.32-129.909c7.988 0 14.49 6.512 14.49 14.514h9.66c0-11.5-8.076-21.112-18.833-23.555 1.928-8.65 9.627-15.147 18.833-15.147 5.632 0 10.795 2.53 14.49 6.84v31.862h9.66v-31.862c3.696-4.31 8.859-6.84 14.491-6.84 9.206 0 16.905 6.497 18.833 15.147-10.757 2.443-18.833 12.055-18.833 23.555h9.66c0-8.002 6.501-14.514 14.49-14.514 7.878 0 14.273 6.333 14.457 14.18-2.463 3.672-23.426 10.01-57.928 10.01-34.501 0-55.464-6.338-57.927-10.01.184-7.847 6.579-14.18 14.457-14.18zm-14.49 25.5v37.391c0 32.012 26 58.053 57.961 58.053 31.96 0 57.961-26.041 57.961-58.053v-37.39c-17.418 8.059-52.779 8.364-57.961 8.364-5.183 0-40.544-.305-57.962-8.365zm25.82 110.5c3.015 6.448 9.854 14.421 21.814 17.474l-20.518 20.55-7.405-37.081 6.11-.943zm-30.009 76.862h43.471l3.98-27.885-5.371-8.065-16.707 16.734-11.027-55.232-9.477 1.461c-18.697 2.878-34.424 16.429-40.065 34.512l-12.008 38.475h37.467l4.303-34.464 9.583 1.199-4.149 33.265zm53.228 0l4.304-30.173-8.487-12.753 13.104-13.124 13.104 13.124-8.486 12.753 4.304 30.173h-17.843zm76.504-34.464l4.304 34.464h37.467l-12.003-38.47c-5.641-18.084-21.368-31.629-40.066-34.513l-9.476-1.461-11.027 55.233-16.708-16.734-5.371 8.065 3.975 27.88h43.472l-4.15-33.265 9.583-1.199z" clip-rule="evenodd"/>
                <path d="M1219.934 763.848c-5.295 0-9.602-4.423-9.602-9.862h-9.602c0 10.877 8.613 19.723 19.204 19.723 10.591 0 19.204-8.846 19.204-19.723h-9.602c0 5.439-4.306 9.862-9.602 9.862zM1278.064 773.71c10.591 0 19.204-8.847 19.204-19.724h-9.602c0 5.439-4.306 9.862-9.602 9.862-5.295 0-9.602-4.423-9.602-9.862h-9.602c0 10.877 8.613 19.723 19.204 19.723z"/>
                <path fill-rule="evenodd" d="M1374.767 618c-12.596 0-22.86 9.698-24.005 21.998l-21.62 21.62 9.694 9.692-20.806 20.806 6.853 6.853 20.805-20.806 9.693 9.693 21.62-21.62c12.3-1.143 21.998-11.408 21.998-24.004 0-13.361-10.87-24.232-24.232-24.232zm-19.386 56.15l-12.533-12.532 9.722-9.722a24.36 24.36 0 0 0 12.533 12.533l-9.722 9.721zm4.847-31.918c0 8.016 6.523 14.54 14.539 14.54s14.54-6.524 14.54-14.54c0-8.016-6.524-14.54-14.54-14.54-8.016 0-14.54 6.524-14.54 14.54z" clip-rule="evenodd"/>
                <path d="M1311.8 670.941h9.343v9.343h-9.343v-9.343zM1335.68 695.855h9.343v9.343h-9.343v-9.343z"/>
                <path fill-rule="evenodd" d="M1152.31 678.163l20.806 20.806 6.853-6.853-20.806-20.806 9.693-9.692-21.62-21.62c-1.144-12.3-11.408-21.998-24.004-21.998-13.361 0-24.232 10.87-24.232 24.232 0 12.596 9.698 22.86 21.998 24.004l21.62 21.62 9.693-9.693zm-43.617-35.931c0-8.016 6.523-14.54 14.539-14.54s14.54 6.524 14.54 14.54c0 8.016-6.524 14.54-14.54 14.54-8.016 0-14.54-6.524-14.54-14.54zm46.457 19.386l-9.722-9.722a24.357 24.357 0 0 1-12.533 12.533l9.722 9.721 12.533-12.532z" clip-rule="evenodd"/>
                <path d="M1176.85 670.941h9.343v9.343h-9.343v-9.343zM1151.94 695.855h9.343v9.343h-9.343v-9.343z"/>
            </g>
        </g>
    </g>
</svg>
