<svg width="688" height="661" viewBox="0 0 688 661" fill="none" xmlns="http://www.w3.org/2000/svg">
<path fill-rule="evenodd" clip-rule="evenodd" d="M174 58.5266C174 52.9264 171.052 47.7994 166.192 44.8809L95.5247 2.36631C90.2665 -0.788769 83.6538 -0.788769 78.3956 2.36631L7.80769 44.8809C2.9478 47.7994 0 53.0053 0 58.5266V143.477C0 149.077 2.9478 154.204 7.80769 157.123L78.3956 199.637C81.0247 201.215 87.956 204.054 95.5247 199.637L166.113 157.123C171.052 154.283 174 149.077 174 143.477V58.5266Z" transform="translate(514 230)" fill="white" fill-opacity="0.1"/>
<path fill-rule="evenodd" clip-rule="evenodd" d="M174 58.5266C174 52.9264 171.052 47.7994 166.192 44.8809L95.5247 2.36631C90.2665 -0.788769 83.6538 -0.788769 78.3956 2.36631L7.80769 44.8809C2.9478 47.7994 0 53.0053 0 58.5266V143.477C0 149.077 2.9478 154.204 7.80769 157.123L78.3956 199.637C81.0247 201.215 87.956 204.054 95.5247 199.637L166.113 157.123C171.052 154.283 174 149.077 174 143.477V58.5266Z" transform="translate(0 230)" fill="white" fill-opacity="0.1"/>
<path fill-rule="evenodd" clip-rule="evenodd" d="M174 58.5266C174 52.9264 171.052 47.7994 166.192 44.8809L95.5247 2.36631C90.2665 -0.788769 83.6538 -0.788769 78.3956 2.36631L7.80769 44.8809C2.9478 47.7994 0 53.0053 0 58.5266V143.477C0 149.077 2.9478 154.204 7.80769 157.123L78.3956 199.637C81.0247 201.215 87.956 204.054 95.5247 199.637L166.113 157.123C171.052 154.283 174 149.077 174 143.477V58.5266Z" transform="translate(388)" fill="white" fill-opacity="0.1"/>
<path fill-rule="evenodd" clip-rule="evenodd" d="M174 58.5266C174 52.9264 171.052 47.7994 166.192 44.8809L95.5247 2.36631C90.2665 -0.788769 83.6538 -0.788769 78.3956 2.36631L7.80769 44.8809C2.9478 47.7994 0 53.0053 0 58.5266V143.477C0 149.077 2.9478 154.204 7.80769 157.123L78.3956 199.637C81.0247 201.215 87.956 204.054 95.5247 199.637L166.113 157.123C171.052 154.283 174 149.077 174 143.477V58.5266Z" transform="translate(388 459)" fill="white" fill-opacity="0.1"/>
<path fill-rule="evenodd" clip-rule="evenodd" d="M174 58.5266C174 52.9264 171.052 47.7994 166.192 44.8809L95.5247 2.36631C90.2665 -0.788769 83.6538 -0.788769 78.3956 2.36631L7.80769 44.8809C2.9478 47.7994 0 53.0053 0 58.5266V143.477C0 149.077 2.9478 154.204 7.80769 157.123L78.3956 199.637C81.0247 201.215 87.956 204.054 95.5247 199.637L166.113 157.123C171.052 154.283 174 149.077 174 143.477V58.5266Z" transform="translate(126)" fill="white" fill-opacity="0.1"/>
<path fill-rule="evenodd" clip-rule="evenodd" d="M174 58.5266C174 52.9264 171.052 47.7994 166.192 44.8809L95.5247 2.36631C90.2665 -0.788769 83.6538 -0.788769 78.3956 2.36631L7.80769 44.8809C2.9478 47.7994 0 53.0053 0 58.5266V143.477C0 149.077 2.9478 154.204 7.80769 157.123L78.3956 199.637C81.0247 201.215 87.956 204.054 95.5247 199.637L166.113 157.123C171.052 154.283 174 149.077 174 143.477V58.5266Z" transform="translate(126 459)" fill="white" fill-opacity="0.1"/>
</svg>
