<svg xmlns="http://www.w3.org/2000/svg" width="688" height="661" fill="none" viewBox="0 0 688 661">
    <g fill="#fff" fill-opacity=".1" fill-rule="evenodd" clip-rule="evenodd">
        <path d="M688 288.527c0-5.6-2.948-10.728-7.808-13.646l-70.667-42.515a16.682 16.682 0 0 0-17.13 0l-70.587 42.515c-4.86 2.918-7.808 8.124-7.808 13.646v84.95c0 5.6 2.948 10.727 7.808 13.646l70.588 42.514c2.629 1.578 9.56 4.417 17.129 0l70.588-42.514A15.698 15.698 0 0 0 688 373.477v-84.95zM174 288.527c0-5.6-2.948-10.728-7.808-13.646l-70.667-42.515a16.682 16.682 0 0 0-17.13 0L7.809 274.881C2.948 277.799 0 283.005 0 288.527v84.95c0 5.6 2.948 10.727 7.808 13.646l70.588 42.514c2.629 1.578 9.56 4.417 17.129 0l70.588-42.514A15.698 15.698 0 0 0 174 373.477v-84.95zM562 58.527c0-5.6-2.948-10.728-7.808-13.646L483.525 2.366a16.682 16.682 0 0 0-17.13 0l-70.587 42.515c-4.86 2.918-7.808 8.124-7.808 13.646v84.95c0 5.6 2.948 10.727 7.808 13.646l70.588 42.514c2.629 1.578 9.56 4.417 17.129 0l70.588-42.514A15.698 15.698 0 0 0 562 143.477v-84.95zM562 517.527c0-5.6-2.948-10.728-7.808-13.646l-70.667-42.515a16.682 16.682 0 0 0-17.13 0l-70.587 42.515c-4.86 2.918-7.808 8.124-7.808 13.646v84.95c0 5.6 2.948 10.727 7.808 13.646l70.588 42.514c2.629 1.578 9.56 4.417 17.129 0l70.588-42.514A15.698 15.698 0 0 0 562 602.477v-84.95zM300 58.527c0-5.6-2.948-10.728-7.808-13.646L221.525 2.366a16.682 16.682 0 0 0-17.13 0l-70.587 42.515c-4.86 2.918-7.808 8.124-7.808 13.646v84.95c0 5.6 2.948 10.727 7.808 13.646l70.588 42.514c2.629 1.578 9.56 4.417 17.129 0l70.588-42.514A15.698 15.698 0 0 0 300 143.477v-84.95zM300 517.527c0-5.6-2.948-10.728-7.808-13.646l-70.667-42.515a16.682 16.682 0 0 0-17.13 0l-70.587 42.515c-4.86 2.918-7.808 8.124-7.808 13.646v84.95c0 5.6 2.948 10.727 7.808 13.646l70.588 42.514c2.629 1.578 9.56 4.417 17.129 0l70.588-42.514A15.698 15.698 0 0 0 300 602.477v-84.95z"/>
    </g>
</svg>
