<svg xmlns="http://www.w3.org/2000/svg" width="59" height="59" fill="none" viewBox="0 0 59 59">
    <g fill="#fff" fill-rule="evenodd" clip-rule="evenodd">
        <path fill-opacity=".7" d="M57.82 35.015l-10.668-6.49a2.5 2.5 0 0 0-2.589 0l-10.668 6.49a2.445 2.445 0 0 0-1.18 2.083v12.968a2.43 2.43 0 0 0 1.18 2.083l10.668 6.49c.397.24 1.445.674 2.589 0l10.668-6.49A2.445 2.445 0 0 0 59 50.066V37.098a2.43 2.43 0 0 0-1.18-2.083zm-3.769 13.678l-8.2 4.985-8.2-4.985V38.47l8.2-4.985 8.2 4.985v10.223z"/>
        <path d="M25.105 35.015l-10.668-6.49a2.5 2.5 0 0 0-2.589 0L1.18 35.015A2.445 2.445 0 0 0 0 37.098v12.968a2.43 2.43 0 0 0 1.18 2.083l10.668 6.49c.397.24 1.445.674 2.589 0l10.668-6.49a2.445 2.445 0 0 0 1.18-2.083V37.098a2.43 2.43 0 0 0-1.18-2.083zm-3.757 13.678l-8.2 4.985-8.2-4.985V38.47l8.2-4.985 8.2 4.985v10.223zM42.649 21.902V8.934a2.43 2.43 0 0 0-1.18-2.083L30.789.361a2.5 2.5 0 0 0-2.59 0l-10.667 6.49a2.445 2.445 0 0 0-1.18 2.083v12.968a2.43 2.43 0 0 0 1.18 2.083l10.668 6.49c.397.241 1.445.675 2.588 0l10.669-6.49a2.4 2.4 0 0 0 1.192-2.083zm-4.95-1.372L29.5 25.514l-8.2-4.984V10.307l8.2-4.985 8.2 4.985V20.53z"/>
    </g>
</svg>
