<svg xmlns="http://www.w3.org/2000/svg" width="233" height="233" fill="none" viewBox="0 0 233 233">
    <g fill="#fff" fill-rule="evenodd" clip-rule="evenodd">
        <path fill-opacity=".7" d="M228.34 138.279l-42.13-25.63a9.872 9.872 0 0 0-10.224 0l-42.13 25.63c-2.9 1.759-4.66 4.897-4.66 8.226v51.212c0 3.377 1.76 6.467 4.66 8.227l42.13 25.63c1.57.951 5.706 2.663 10.224 0l42.13-25.63c2.9-1.76 4.66-4.898 4.66-8.227v-51.212c0-3.376-1.76-6.467-4.66-8.226zm-14.883 54.018l-32.383 19.686-32.382-19.686v-40.371l32.382-19.686 32.383 19.686v40.37z"/>
        <path d="M99.144 138.279l-42.13-25.63a9.872 9.872 0 0 0-10.224 0l-42.13 25.63c-2.9 1.759-4.66 4.897-4.66 8.226v51.212c0 3.377 1.76 6.467 4.66 8.227l42.13 25.63c1.57.951 5.706 2.663 10.224 0l42.13-25.63c2.9-1.76 4.66-4.898 4.66-8.227v-51.212c0-3.376-1.76-6.467-4.66-8.226zm-14.836 54.018l-32.382 19.686-32.383-19.686v-40.371l32.383-19.686 32.382 19.686v40.37zM168.425 86.495V35.283c0-3.376-1.758-6.467-4.66-8.226l-42.177-25.63a9.872 9.872 0 0 0-10.224 0l-42.13 25.63c-2.9 1.759-4.66 4.897-4.66 8.226v51.212c0 3.377 1.76 6.467 4.66 8.227l42.13 25.63c1.57.951 5.707 2.663 10.224 0l42.13-25.63c2.949-1.712 4.707-4.85 4.707-8.227zm-19.543-5.42L116.5 100.76 84.118 81.075V40.704L116.5 21.018l32.382 19.686v40.37z"/>
    </g>
</svg>
