<svg width="50" height="50" viewBox="0 0 50 50" fill="none" xmlns="http://www.w3.org/2000/svg">
<path fill-rule="evenodd" clip-rule="evenodd" d="M12.5 0H37.4604C44.3652 0 50 5.63477 50 12.5396V37.4604C50 44.3652 44.3652 50 37.4604 50H12.5C5.63477 50 0 44.3652 0 37.5V12.5396C0 5.63477 5.63477 0 12.5 0ZM26.9839 25H31.7061L32.2617 18.6509H27.3809V16.27C27.3809 15.0396 28.1348 14.6826 28.6904 14.6826H32.1426V9.40479H27.2617C21.9048 9.40479 20.6348 13.4126 20.6348 15.9526V18.6509H17.8569V25H21.0317V40.4761H26.9839V25Z" fill="white"/>
</svg>
