<svg width="50" height="50" viewBox="0 0 50 50" fill="none" xmlns="http://www.w3.org/2000/svg">
<path fill-rule="evenodd" clip-rule="evenodd" d="M12.5146 0H37.3862C44.2773 0 49.9009 5.62354 49.9404 12.5146V37.3862C49.9404 44.2773 44.3169 49.9009 37.4258 49.9009H12.5146C5.62354 49.9009 0 44.2773 0 37.4258V12.5146C0 5.62354 5.62354 0 12.5146 0ZM9.50488 40.396H16.6338V19.8018H9.50488V40.396ZM13.0298 16.6338C11.0098 16.6338 9.38623 15.0103 9.38623 12.9902C9.38623 10.9702 11.0098 9.34668 13.0298 9.34668C15.0498 9.34668 16.6733 10.9702 16.6733 12.9902C16.6338 15.0103 15.0098 16.6338 13.0298 16.6338ZM40.396 40.396H40.4355V29.1089C40.4355 23.5244 39.2871 19.7622 32.7524 19.7622C29.5845 19.7622 27.5645 20.9897 26.6934 22.5742H26.5347V19.8018H20.9902V40.396H26.9307V30.2573C26.9307 27.5244 27.4854 24.9106 30.8516 24.9106C34.1387 24.9106 34.4556 28 34.4556 30.4155V40.396H40.396Z" transform="translate(0 0.0200195)" fill="white"/>
</svg>
