<svg width="50" height="50" viewBox="0 0 50 50" fill="none" xmlns="http://www.w3.org/2000/svg">
<path d="M16.8254 11.5079C16.5079 10.754 15.9524 10.1984 15.2381 9.72222C14.5238 9.28571 13.6905 8.88889 12.6984 8.57143C11.7063 8.25397 10.5952 7.97619 9.40476 7.7381C8.45238 7.53968 7.7381 7.34127 7.34127 7.22222C6.94444 7.10317 6.54762 6.94444 6.15079 6.74603C5.79365 6.54762 5.47619 6.34921 5.27778 6.07143C5.07936 5.83333 4.96032 5.55556 4.96032 5.2381C4.96032 4.68254 5.27778 4.24603 5.87302 3.84921C6.50794 3.45238 7.38095 3.21429 8.45238 3.21429C9.60318 3.21429 10.4365 3.4127 10.9524 3.76984C11.4683 4.16667 11.9048 4.72222 12.3016 5.39683C12.619 5.95238 12.8968 6.30952 13.1746 6.54762C13.4921 6.8254 13.8889 6.94444 14.4444 6.94444C15.0397 6.94444 15.5556 6.74603 15.9921 6.30952C16.3889 5.9127 16.5873 5.43651 16.5873 4.88095C16.5873 4.3254 16.4286 3.76984 16.1111 3.21429C15.7937 2.65873 15.3175 2.10317 14.6825 1.62698C14.0476 1.11111 13.2143 0.714286 12.2222 0.436508C11.2302 0.119048 10.0794 0 8.73016 0C7.06349 0 5.59524 0.238095 4.36508 0.674603C3.09524 1.11111 2.14286 1.78571 1.46825 2.65873C0.793651 3.53175 0.47619 4.52381 0.47619 5.63492C0.47619 6.78571 0.793651 7.77778 1.42857 8.57143C2.06349 9.36508 2.93651 9.96032 3.96825 10.4365C5 10.873 6.30952 11.2698 7.85714 11.5873C9.00794 11.8254 9.92063 12.0635 10.5952 12.2619C11.2302 12.4603 11.7857 12.7381 12.1825 13.1349C12.5794 13.4921 12.7381 13.9286 12.7381 14.5238C12.7381 15.2381 12.381 15.873 11.627 16.3492C10.873 16.8651 9.84127 17.1032 8.61111 17.1032C7.73809 17.1032 6.98413 16.9841 6.46825 16.7063C5.95238 16.4683 5.51587 16.1508 5.2381 15.754C4.92063 15.3571 4.64286 14.8413 4.36508 14.246C4.12698 13.6905 3.84921 13.2937 3.49206 12.9762C3.13492 12.6984 2.69841 12.5397 2.18254 12.5397C1.54762 12.5397 1.03175 12.7381 0.634921 13.0952C0.238095 13.4921 0 13.9286 0 14.4841C0 15.3571 0.31746 16.2302 0.952381 17.1429C1.5873 18.0159 2.42063 18.7698 3.4127 19.2857C4.80159 20 6.5873 20.3968 8.73016 20.3968C10.5159 20.3968 12.0635 20.119 13.373 19.6032C14.6825 19.0476 15.7143 18.2937 16.3889 17.3413C17.0635 16.3889 17.4206 15.2778 17.4206 14.0873C17.4206 13.0952 17.2222 12.2222 16.8254 11.5079Z" transform="translate(16.3096 14.8413)" fill="white"/>
<path fill-rule="evenodd" clip-rule="evenodd" d="M12.5 0H37.4604C44.3652 0 50 5.63477 50 12.5396V37.4604C50 44.3652 44.3652 50 37.4604 50H12.5C5.63477 50 0 44.3652 0 37.5V12.5396C0 5.63477 5.63477 0 12.5 0ZM27.897 39.603C29.127 40.2378 30.5161 40.5952 31.9844 40.5952C36.7461 40.5952 40.5952 36.7856 40.5952 32.1426C40.5952 30.7935 40.2383 29.5239 39.6826 28.373C39.9209 27.3809 40.0396 26.3096 40.0396 25.2378C40.0396 17.1426 33.373 10.5557 25.1587 10.5557C24.2856 10.5557 23.4526 10.6348 22.6191 10.7539C21.27 9.92041 19.6826 9.44434 18.0161 9.44434C13.2539 9.44434 9.40479 13.2539 9.40479 17.9365C9.40479 19.4839 9.84131 20.9521 10.5952 22.2222C10.397 23.1743 10.2778 24.1665 10.2778 25.1587C10.2778 33.2539 16.9443 39.8413 25.1587 39.8413C26.1113 39.8413 27.0239 39.7617 27.897 39.603Z" fill="white"/>
</svg>
