<svg width="50" height="50" viewBox="0 0 50 50" fill="none" xmlns="http://www.w3.org/2000/svg">
<path fill-rule="evenodd" clip-rule="evenodd" d="M12.5146 0H37.3862C44.2773 0 49.9009 5.62354 49.9404 12.5146V37.3862C49.9404 44.2773 44.3169 49.9009 37.4258 49.9009H12.5146C5.62354 49.9009 0 44.2773 0 37.4258V12.5146C0 5.62354 5.62354 0 12.5146 0ZM37.3467 19.5244V18.6929C38.5742 17.8218 39.6436 16.7129 40.5151 15.4453C39.3662 15.96 38.1387 16.2769 36.8315 16.4355C38.1387 15.6436 39.1685 14.4155 39.6436 12.9502C38.9995 13.3452 38.3228 13.6748 37.6128 13.9385C36.9702 14.1777 36.3003 14.3633 35.604 14.4946C34.416 13.2671 32.7524 12.5146 30.9307 12.5146C27.4062 12.5146 24.5547 15.3267 24.5547 18.8115C24.5547 19.2871 24.5942 19.7622 24.7129 20.2373C19.4062 19.96 14.7329 17.4653 11.5645 13.6631C11.0098 14.6138 10.6934 15.6831 10.6934 16.8315C10.6934 19.0098 11.8418 20.9502 13.5444 22.0591C12.5151 22.0195 11.4854 21.7422 10.6934 21.2671V21.3462C10.6934 24.396 12.8716 26.9307 15.7227 27.5244C15.5269 27.585 15.3198 27.6338 15.1055 27.6709C14.7559 27.7319 14.3877 27.7622 14.02 27.7622C13.624 27.7622 13.228 27.7227 12.8315 27.6436C13.6636 30.1382 16 31.96 18.812 32C16.6338 33.7026 13.9009 34.6929 10.8911 34.6929C10.4976 34.6929 10.1265 34.6699 9.74365 34.6411L9.38623 34.6138C12.1982 36.396 15.5645 37.4258 19.1685 37.4258C30.9307 37.4258 37.3467 27.8413 37.3467 19.5244Z" fill="white"/>
</svg>
